# 3ds Max Wavefront OBJ Exporter v0.97b - (c)2007 guruware
# File Created: 21.05.2015 20:12:45

mtllib crutch.mtl

#
# object kolsyl
#

v  13.1284 44.1811 4.7423
v  15.8486 44.1811 -5.4100
v  13.7546 43.0581 4.9101
v  16.4749 43.0581 -5.2422
v  15.0070 43.0581 5.2457
v  17.7273 43.0581 -4.9066
v  15.6333 44.1811 5.4135
v  18.3536 44.1811 -4.7388
v  15.0070 45.3040 5.2457
v  17.7273 45.3040 -4.9066
v  13.7546 45.3040 4.9101
v  16.4749 45.3040 -5.2422
v  15.0277 11.0063 -1.3337
v  15.0277 0.0525 -1.3337
v  14.4555 0.0525 0.8017
v  14.4555 11.0063 0.8017
v  17.0132 11.0063 -0.8017
v  17.0132 0.0525 -0.8017
v  16.4410 0.0525 1.3337
v  16.4410 11.0063 1.3337
v  15.0277 22.3794 -1.3337
v  14.4555 22.3794 0.8017
v  17.0132 22.3794 -0.8017
v  16.4410 22.3794 1.3337
v  14.4326 11.0063 -0.3488
v  14.4326 0.0525 -0.3488
v  17.0362 11.0063 0.3488
v  17.0362 0.0525 0.3488
v  14.4326 22.3794 -0.3488
v  17.0362 22.3794 0.3488
v  15.3369 11.0063 1.4835
v  15.3369 0.0525 1.4835
v  16.1319 0.0525 -1.4835
v  16.1319 11.0063 -1.4835
v  15.7344 -0.0877 0.0000
v  15.3369 22.3794 1.4835
v  16.1319 22.3794 -1.4835
v  14.8566 11.0063 -1.6084
v  14.8566 0.3181 -1.6084
v  14.1700 0.3181 0.9541
v  14.1700 11.0063 0.9541
v  17.2988 11.0063 -0.9541
v  17.2988 0.3181 -0.9541
v  16.6121 0.3181 1.6084
v  16.6121 11.0063 1.6084
v  14.1332 11.0063 -0.4290
v  14.1332 0.3181 -0.4290
v  17.3356 11.0063 0.4290
v  17.3356 0.3181 0.4290
v  15.2574 11.0063 1.7803
v  15.2574 0.3181 1.7803
v  16.2114 0.3181 -1.7803
v  16.2114 11.0063 -1.7803
v  14.8301 22.3794 -1.8324
v  14.0351 22.3794 1.1347
v  17.4337 22.3794 -1.1347
v  16.6387 22.3794 1.8324
v  14.8956 25.5410 -2.0769
v  13.9695 25.5410 1.3792
v  17.4992 25.5410 -1.3792
v  16.5731 25.5410 2.0769
v  16.3182 29.6698 -7.3861
v  12.5469 29.6698 6.6885
v  18.9218 29.6698 -6.6885
v  15.1505 29.6698 7.3861
v  15.7827 30.4034 -5.3875
v  13.0825 30.4034 4.6898
v  18.3863 30.4034 -4.6898
v  15.6861 30.4034 5.3875
v  16.3182 62.8735 -7.3861
v  12.5469 62.8735 6.6885
v  18.9218 62.8735 -6.6885
v  15.1505 62.8735 7.3861
v  15.7827 62.5432 -5.3875
v  13.0825 62.5432 4.6898
v  18.3863 62.5432 -4.6898
v  15.6861 62.5432 5.3875
v  16.5701 65.0192 -6.8990
v  13.0086 65.0192 6.3925
v  18.4601 65.0192 -6.3925
v  14.8987 65.0192 6.8990
v  16.1394 64.8391 -5.2919
v  13.4392 64.8391 4.7854
v  18.0295 64.8391 -4.7854
v  15.3293 64.8391 5.2919
v  15.0602 62.3207 -2.6912
v  13.8049 62.3207 1.9936
v  17.6638 62.3207 -1.9936
v  16.4085 62.3207 2.6912
v  15.4170 64.4664 -2.5956
v  14.1617 64.4664 2.0892
v  17.3070 64.4664 -2.0892
v  16.0518 64.4664 2.5956
v  15.1002 63.9464 7.5741
v  12.4966 63.9464 6.8765
v  15.7827 63.7019 -5.3875
v  16.3686 63.9464 -7.5741
v  13.0825 63.7019 4.6898
v  18.9722 63.9464 -6.8765
v  15.6861 63.7019 5.3875
v  18.3863 63.7019 -4.6898
v  15.0602 63.3935 -2.6912
v  13.8049 63.3936 1.9936
v  16.4085 63.3935 2.6912
v  17.6638 63.3935 -1.9936
v  16.7979 63.1440 -8.0308
v  12.6400 63.1440 7.4866
v  18.8287 63.1440 -7.4867
v  14.6708 63.1440 8.0308
v  16.9605 65.0107 -7.5246
v  13.0340 65.0107 7.1296
v  18.4348 65.0107 -7.1296
v  14.5082 65.0107 7.5246
v  14.6153 64.0666 8.2381
v  12.5845 64.0666 7.6940
v  16.8535 64.0666 -8.2381
v  18.8843 64.0666 -7.6940
# 117 vertices

vn -0.4830 -0.8660 -0.1294
vn -0.4830 -0.8660 -0.1294
vn -0.9659 0.0000 -0.2588
vn -0.9659 -0.0000 -0.2588
vn 0.4830 -0.8660 0.1294
vn 0.4830 -0.8660 0.1294
vn -0.4830 -0.8660 -0.1294
vn -0.4830 -0.8660 -0.1294
vn 0.9659 -0.0000 0.2588
vn 0.9659 0.0000 0.2588
vn 0.4830 -0.8660 0.1294
vn 0.4830 -0.8660 0.1294
vn 0.4830 0.8660 0.1294
vn 0.4830 0.8660 0.1294
vn 0.9659 0.0000 0.2588
vn 0.9659 -0.0000 0.2588
vn -0.4830 0.8660 -0.1294
vn -0.4830 0.8660 -0.1294
vn -0.9659 -0.0000 -0.2588
vn -0.9659 0.0000 -0.2588
vn -0.4830 0.8660 -0.1294
vn -0.4830 0.8660 -0.1294
vn 0.4830 0.8660 0.1294
vn 0.4830 0.8660 0.1294
vn 0.0000 1.0000 -0.0000
vn 0.0000 1.0000 -0.0000
vn 0.0000 1.0000 -0.0000
vn 0.0000 1.0000 -0.0000
vn 0.0000 1.0000 -0.0000
vn 0.0000 1.0000 -0.0000
vn 0.0000 1.0000 -0.0000
vn 0.0000 1.0000 -0.0000
vn -0.3450 -0.7717 -0.5343
vn 0.1706 -0.7577 -0.6299
vn 0.1188 -0.8922 -0.4357
vn -0.2454 -0.8951 -0.3723
vn 0.0000 -1.0000 0.0000
vn 0.4241 -0.8986 0.1123
vn 0.2454 -0.8951 0.3723
vn 0.0000 1.0000 -0.0000
vn 0.0000 1.0000 0.0000
vn 0.0000 1.0000 0.0000
vn 0.0000 1.0000 -0.0000
vn 0.8933 0.0000 -0.4494
vn 0.9659 0.0000 0.2588
vn 0.9659 0.0000 0.2588
vn 0.8933 0.0000 -0.4494
vn -0.5489 0.0000 -0.8359
vn 0.2588 0.0000 -0.9659
vn 0.2588 0.0000 -0.9659
vn -0.5489 0.0000 -0.8359
vn 0.5489 0.0000 0.8359
vn -0.2588 0.0000 0.9659
vn -0.2588 0.0000 0.9659
vn 0.5489 0.0000 0.8359
vn -0.8933 0.0000 0.4494
vn -0.9659 0.0000 -0.2588
vn -0.9659 0.0000 -0.2588
vn -0.8933 0.0000 0.4494
vn 0.0000 1.0000 0.0000
vn 0.0000 1.0000 -0.0000
vn 0.0000 1.0000 -0.0000
vn 0.0000 1.0000 0.0000
vn 0.0000 1.0000 0.0000
vn 0.0000 1.0000 0.0000
vn 0.0000 1.0000 0.0000
vn 0.0000 1.0000 0.0000
vn 0.1188 -0.8922 -0.4357
vn 0.3998 -0.8944 -0.2007
vn 0.0000 -1.0000 0.0000
vn 0.9659 0.0000 0.2588
vn 0.5489 0.0000 0.8359
vn 0.5489 0.0000 0.8359
vn 0.9659 0.0000 0.2588
vn -0.9659 0.0000 -0.2588
vn -0.5489 0.0000 -0.8359
vn -0.5489 0.0000 -0.8359
vn -0.9659 0.0000 -0.2588
vn 0.3450 -0.7717 0.5343
vn -0.1706 -0.7577 0.6299
vn -0.1188 -0.8922 0.4357
vn 0.2454 -0.8951 0.3723
vn -0.4241 -0.8986 -0.1123
vn 0.0000 -1.0000 0.0000
vn -0.3998 -0.8944 0.2007
vn -0.2454 -0.8951 -0.3723
vn 0.1188 -0.8922 -0.4357
vn 0.0000 -1.0000 0.0000
vn 0.2588 0.0000 -0.9659
vn 0.8933 0.0000 -0.4494
vn 0.8933 0.0000 -0.4494
vn 0.2588 0.0000 -0.9659
vn -0.2588 0.0000 0.9659
vn -0.8933 0.0000 0.4494
vn -0.8933 0.0000 0.4494
vn -0.2588 0.0000 0.9659
vn 0.5633 -0.7739 -0.2893
vn 0.6300 -0.7584 0.1673
vn 0.4241 -0.8986 0.1123
vn 0.3998 -0.8944 -0.2007
vn -0.8898 -0.0000 0.4563
vn -0.8898 -0.0000 0.4563
vn -0.9659 -0.0000 -0.2588
vn -0.9659 -0.0000 -0.2588
vn 0.5425 0.0000 0.8401
vn 0.9659 0.0000 0.2588
vn 0.9659 0.0000 0.2588
vn 0.5425 0.0000 0.8401
vn 0.8898 0.0000 -0.4563
vn 0.2588 0.0000 -0.9659
vn 0.2588 -0.0000 -0.9659
vn 0.8898 0.0000 -0.4563
vn 0.5425 0.0000 0.8401
vn -0.2588 0.0000 0.9659
vn -0.2588 -0.0000 0.9659
vn 0.5425 0.0000 0.8401
vn -0.9659 -0.0000 -0.2588
vn -0.9659 -0.0000 -0.2588
vn -0.5425 -0.0000 -0.8401
vn -0.5425 0.0000 -0.8401
vn 0.9659 0.0000 0.2588
vn 0.8898 0.0000 -0.4563
vn 0.8898 0.0000 -0.4563
vn 0.9659 0.0000 0.2588
vn 0.2588 0.0000 -0.9659
vn -0.5425 0.0000 -0.8401
vn -0.5425 -0.0000 -0.8401
vn 0.2588 -0.0000 -0.9659
vn -0.2588 0.0000 0.9659
vn -0.8898 -0.0000 0.4563
vn -0.8898 -0.0000 0.4563
vn -0.2588 -0.0000 0.9659
vn 0.0000 1.0000 -0.0000
vn 0.0000 1.0000 -0.0000
vn 0.0000 1.0000 -0.0000
vn 0.0000 1.0000 -0.0000
vn -0.6300 -0.7584 -0.1673
vn -0.3450 -0.7717 -0.5343
vn -0.2454 -0.8951 -0.3723
vn -0.4241 -0.8986 -0.1123
vn 0.0000 1.0000 -0.0000
vn 0.0000 1.0000 -0.0000
vn 0.0000 1.0000 -0.0000
vn 0.0000 1.0000 -0.0000
vn -0.5633 -0.7739 0.2893
vn -0.6300 -0.7584 -0.1673
vn -0.4241 -0.8986 -0.1123
vn -0.3998 -0.8944 0.2007
vn -0.1706 -0.7577 0.6299
vn -0.5633 -0.7739 0.2893
vn -0.3998 -0.8944 0.2007
vn -0.1188 -0.8922 0.4357
vn 0.0000 1.0000 -0.0000
vn 0.0000 1.0000 -0.0000
vn 0.0000 1.0000 -0.0000
vn 0.0000 1.0000 -0.0000
vn 0.6300 -0.7584 0.1673
vn 0.3450 -0.7717 0.5343
vn 0.2454 -0.8951 0.3723
vn 0.4241 -0.8986 0.1123
vn 0.1706 -0.7577 -0.6299
vn 0.5633 -0.7739 -0.2893
vn 0.3998 -0.8944 -0.2007
vn 0.1188 -0.8922 -0.4357
vn 0.3998 -0.8944 -0.2007
vn 0.4241 -0.8986 0.1123
vn 0.0000 -1.0000 0.0000
vn -0.1188 -0.8922 0.4357
vn 0.0000 -1.0000 0.0000
vn 0.2454 -0.8951 0.3723
vn 0.0000 -1.0000 0.0000
vn -0.1188 -0.8922 0.4357
vn -0.3998 -0.8944 0.2007
vn -0.4241 -0.8986 -0.1123
vn -0.2454 -0.8951 -0.3723
vn 0.0000 -1.0000 0.0000
vn 0.0000 1.0000 -0.0000
vn 0.0000 1.0000 -0.0000
vn 0.0000 1.0000 -0.0000
vn 0.0000 1.0000 -0.0000
vn 0.9659 0.0000 0.2588
vn 0.9659 0.0000 0.2588
vn 0.9659 0.0000 0.2588
vn 0.9659 0.0000 0.2588
vn -0.9659 0.0000 -0.2588
vn -0.9659 0.0000 -0.2588
vn -0.9659 0.0000 -0.2588
vn -0.9659 0.0000 -0.2588
vn -0.2115 0.5761 0.7895
vn -0.2115 0.5761 0.7895
vn -0.2115 0.5761 0.7895
vn -0.2115 0.5761 0.7895
vn 0.9659 0.0000 0.2588
vn 0.9659 0.0000 0.2588
vn 0.9659 0.0000 0.2588
vn 0.9659 0.0000 0.2588
vn 0.2588 0.0000 -0.9659
vn 0.2588 0.0000 -0.9659
vn 0.2588 0.0000 -0.9659
vn 0.2588 0.0000 -0.9659
vn -0.9659 0.0000 -0.2588
vn -0.9659 0.0000 -0.2588
vn -0.9659 0.0000 -0.2588
vn -0.9659 0.0000 -0.2588
vn -0.2032 -0.6192 0.7584
vn -0.2032 -0.6192 0.7584
vn -0.2032 -0.6192 0.7584
vn -0.2032 -0.6192 0.7584
vn -0.9659 0.0000 -0.2588
vn -0.9659 0.0000 -0.2588
vn -0.9659 0.0000 -0.2588
vn -0.9659 0.0000 -0.2588
vn -0.9659 0.0000 -0.2588
vn -0.9659 0.0000 -0.2588
vn -0.9659 0.0000 -0.2588
vn -0.9659 0.0000 -0.2588
vn 0.2032 -0.6192 -0.7584
vn 0.2032 -0.6192 -0.7584
vn 0.2032 -0.6192 -0.7584
vn 0.2032 -0.6192 -0.7584
vn 0.9659 0.0000 0.2588
vn 0.9659 0.0000 0.2588
vn 0.9659 0.0000 0.2588
vn 0.9659 0.0000 0.2588
vn 0.2115 0.5761 -0.7895
vn 0.2115 0.5761 -0.7895
vn 0.2115 0.5761 -0.7895
vn 0.2115 0.5761 -0.7895
vn -0.5889 0.8060 -0.0587
vn -0.5616 0.8095 -0.1712
vn -0.8835 0.1753 -0.4345
vn -0.9583 0.1564 -0.2391
vn 0.4760 0.8165 -0.3266
vn -0.2502 0.8160 -0.5211
vn -0.5616 0.8095 -0.1712
vn 0.5717 0.8096 0.1330
vn 0.2588 0.0000 -0.9659
vn 0.2588 0.0000 -0.9659
vn 0.2588 0.0000 -0.9659
vn 0.2588 0.0000 -0.9659
vn 0.9659 0.0000 0.2588
vn 0.9659 0.0000 0.2588
vn 0.9659 0.0000 0.2588
vn 0.9659 0.0000 0.2588
vn -0.2588 0.0000 0.9659
vn -0.2588 0.0000 0.9659
vn -0.2588 0.0000 0.9659
vn -0.2588 0.0000 0.9659
vn 0.9659 0.0000 0.2588
vn 0.9659 0.0000 0.2588
vn 0.9659 0.0000 0.2588
vn 0.9659 0.0000 0.2588
vn -0.2588 0.0000 0.9659
vn -0.2588 0.0000 0.9659
vn -0.2588 0.0000 0.9659
vn -0.2588 0.0000 0.9659
vn -0.9659 0.0000 -0.2588
vn -0.9659 0.0000 -0.2588
vn -0.9659 0.0000 -0.2588
vn -0.9659 0.0000 -0.2588
vn 0.5616 0.8095 0.1712
vn 0.5889 0.8060 0.0587
vn -0.5397 0.8054 -0.2452
vn -0.5717 0.8096 -0.1330
vn 0.5397 0.8054 0.2452
vn 0.5717 0.8096 0.1330
vn -0.5616 0.8095 -0.1712
vn -0.5889 0.8060 -0.0587
vn -0.5717 0.8096 -0.1330
vn -0.5397 0.8054 -0.2452
vn -0.9489 0.1575 -0.2736
vn -0.9833 0.1708 -0.0622
vn -0.7256 0.2071 0.6562
vn -0.4760 0.8165 0.3266
vn -0.5717 0.8096 -0.1330
vn -0.9833 0.1708 -0.0622
vn -0.5596 0.8033 -0.2038
vn -0.9513 0.1594 -0.2637
vn -0.9489 0.1575 -0.2736
vn -0.5397 0.8054 -0.2452
vn 0.5889 0.8060 0.0587
vn 0.5616 0.8095 0.1712
vn 0.8835 0.1753 0.4345
vn 0.9583 0.1564 0.2391
vn -0.5861 0.8039 -0.1011
vn 0.5596 0.8033 0.2038
vn 0.5397 0.8054 0.2452
vn -0.5889 0.8060 -0.0587
vn 0.5717 0.8096 0.1330
vn 0.5397 0.8054 0.2452
vn 0.9489 0.1575 0.2736
vn 0.9833 0.1708 0.0622
vn 0.5596 0.8033 0.2038
vn 0.9513 0.1594 0.2637
vn 0.9489 0.1575 0.2736
vn 0.5397 0.8054 0.2452
vn -0.6818 -0.7153 -0.1532
vn 0.6671 -0.7153 0.2082
vn 0.8501 -0.4549 0.2653
vn -0.8689 -0.4549 -0.1953
vn 0.6671 -0.7153 0.2082
vn 0.9562 0.1583 0.2462
vn 0.9583 0.1564 0.2391
vn 0.8501 -0.4549 0.2653
vn -0.6671 -0.7153 -0.2082
vn -0.9562 0.1583 -0.2462
vn -0.9583 0.1564 -0.2391
vn -0.8501 -0.4549 -0.2653
vn 0.5861 0.8039 0.1011
vn -0.5596 0.8033 -0.2038
vn -0.5397 0.8054 -0.2452
vn 0.5889 0.8060 0.0587
vn 0.6818 -0.7153 0.1532
vn -0.6671 -0.7153 -0.2082
vn -0.8501 -0.4549 -0.2653
vn 0.8689 -0.4549 0.1953
vn -0.6818 -0.7153 -0.1532
vn -0.6671 -0.7153 -0.2082
vn 0.6818 -0.7153 0.1532
vn 0.6671 -0.7153 0.2082
vn 0.6671 -0.7153 0.2082
vn 0.6818 -0.7153 0.1532
vn 0.9513 0.1594 0.2637
vn 0.9562 0.1583 0.2462
vn 0.5861 0.8039 0.1011
vn 0.5596 0.8033 0.2038
vn -0.5861 0.8039 -0.1011
vn -0.5596 0.8033 -0.2038
vn -0.5596 0.8033 -0.2038
vn -0.5861 0.8039 -0.1011
vn -0.9562 0.1583 -0.2462
vn -0.9513 0.1594 -0.2637
vn -0.0000 -1.0000 0.0000
vn -0.0000 -1.0000 0.0000
vn -0.0000 -1.0000 0.0000
vn -0.0000 -1.0000 0.0000
vn -0.9583 0.1564 -0.2391
vn -0.8835 0.1753 -0.4345
vn -0.7949 -0.3767 -0.4757
vn -0.8501 -0.4549 -0.2653
vn 0.2985 0.2098 0.9311
vn 0.2510 -0.5507 0.7961
vn 0.7949 -0.3766 0.4757
vn 0.8835 0.1753 0.4345
vn -0.9833 0.1708 -0.0622
vn -0.9489 0.1575 -0.2736
vn -0.8689 -0.4549 -0.1953
vn -0.9272 -0.3741 0.0170
vn -0.2985 0.2098 -0.9311
vn -0.2510 -0.5507 -0.7961
vn -0.7949 -0.3767 -0.4757
vn -0.8835 0.1753 -0.4345
vn -0.9513 0.1594 -0.2637
vn -0.6818 -0.7153 -0.1532
vn -0.8689 -0.4549 -0.1953
vn -0.9489 0.1575 -0.2736
vn 0.9583 0.1564 0.2391
vn 0.8835 0.1753 0.4345
vn 0.7949 -0.3766 0.4757
vn 0.8501 -0.4549 0.2653
vn 0.9833 0.1708 0.0622
vn 0.9489 0.1575 0.2736
vn 0.8689 -0.4549 0.1953
vn 0.9272 -0.3741 -0.0170
vn 0.9513 0.1594 0.2637
vn 0.6818 -0.7153 0.1532
vn 0.8689 -0.4549 0.1953
vn 0.9489 0.1575 0.2736
vn 0.9562 0.1583 0.2462
vn 0.5861 0.8039 0.1011
vn 0.5889 0.8060 0.0587
vn 0.9583 0.1564 0.2391
vn -0.9562 0.1583 -0.2462
vn -0.5861 0.8039 -0.1011
vn -0.5889 0.8060 -0.0587
vn -0.9583 0.1564 -0.2391
vn 0.9562 0.1583 0.2462
vn 0.9513 0.1594 0.2637
vn 0.5596 0.8033 0.2038
vn 0.5861 0.8039 0.1011
vn -0.9513 0.1594 -0.2637
vn -0.9562 0.1583 -0.2462
vn -0.6671 -0.7153 -0.2082
vn -0.6818 -0.7153 -0.1532
vn 0.2502 0.8160 0.5211
vn -0.4760 0.8165 0.3266
vn -0.7256 0.2071 0.6562
vn 0.2985 0.2098 0.9311
vn -0.2502 0.8160 -0.5211
vn 0.4760 0.8165 -0.3266
vn 0.7256 0.2071 -0.6562
vn -0.2985 0.2098 -0.9311
vn 0.2985 0.2098 0.9311
vn -0.7256 0.2071 0.6562
vn -0.6216 -0.5473 0.5605
vn 0.2510 -0.5507 0.7961
vn -0.2985 0.2098 -0.9311
vn 0.7256 0.2071 -0.6562
vn 0.6216 -0.5473 -0.5605
vn -0.2510 -0.5507 -0.7961
vn 0.6216 -0.5473 -0.5605
vn 0.7256 0.2071 -0.6562
vn 0.9833 0.1708 0.0622
vn 0.9272 -0.3741 -0.0170
vn -0.4760 0.8165 0.3266
vn 0.2502 0.8160 0.5211
vn 0.5616 0.8095 0.1712
vn -0.5717 0.8096 -0.1330
vn 0.2502 0.8160 0.5211
vn 0.2985 0.2098 0.9311
vn 0.8835 0.1753 0.4345
vn 0.5616 0.8095 0.1712
vn -0.2502 0.8160 -0.5211
vn -0.2985 0.2098 -0.9311
vn -0.8835 0.1753 -0.4345
vn -0.5616 0.8095 -0.1712
vn -0.2510 -0.5507 -0.7961
vn 0.6216 -0.5473 -0.5605
vn 0.9272 -0.3741 -0.0170
vn -0.7949 -0.3767 -0.4757
vn -0.6216 -0.5473 0.5605
vn -0.7256 0.2071 0.6562
vn -0.9833 0.1708 -0.0622
vn -0.9272 -0.3741 0.0170
vn 0.2510 -0.5507 0.7961
vn -0.6216 -0.5473 0.5605
vn -0.9272 -0.3741 0.0170
vn 0.7949 -0.3766 0.4757
vn 0.7256 0.2071 -0.6562
vn 0.4760 0.8165 -0.3266
vn 0.5717 0.8096 0.1330
vn 0.9833 0.1708 0.0622
# 432 vertex normals

vt 0.7550 0.5276 0.0000
vt 0.7551 0.7973 0.0000
vt 0.7045 0.8063 0.0000
vt 0.7172 0.5371 0.0000
vt 0.6593 0.8213 0.0000
vt 0.6606 0.5352 0.0000
vt 0.1629 0.9002 0.0000
vt 0.1629 0.4708 0.0000
vt 0.2536 0.4708 0.0000
vt 0.2536 0.9002 0.0000
vt 0.3443 0.4708 0.0000
vt 0.3443 0.9002 0.0000
vt 0.7802 0.5272 0.0000
vt 0.7829 0.7955 0.0000
vt 0.8194 0.5227 0.0000
vt 0.8118 0.8180 0.0000
vt 0.2964 0.1732 0.0000
vt 0.2844 0.1732 0.0000
vt 0.2905 0.1732 0.0000
vt 0.3049 0.1732 0.0000
vt 0.7438 0.1815 0.0000
vt 0.7137 0.1815 0.0000
vt 0.7077 0.1815 0.0000
vt 0.1582 0.0962 0.0000
vt 0.1390 0.0461 0.0000
vt 0.1489 0.0346 0.0000
vt 0.1719 0.0962 0.0000
vt 0.0897 0.0962 0.0000
vt 0.0897 0.1619 0.0000
vt 0.0404 0.1463 0.0000
vt 0.7738 0.1815 0.0000
vt 0.7799 0.1815 0.0000
vt 0.2536 0.1732 0.0000
vt 0.2844 0.3454 0.0000
vt 0.2536 0.3454 0.0000
vt 0.7020 0.1815 0.0000
vt 0.7137 0.3496 0.0000
vt 0.7020 0.3496 0.0000
vt 0.2108 0.1732 0.0000
vt 0.2228 0.1732 0.0000
vt 0.2228 0.3454 0.0000
vt 0.2108 0.3454 0.0000
vt 0.7738 0.3496 0.0000
vt 0.7438 0.3496 0.0000
vt 0.2022 0.1732 0.0000
vt 0.2166 0.1732 0.0000
vt 0.7856 0.1815 0.0000
vt 0.7939 0.1815 0.0000
vt 0.1390 0.1463 0.0000
vt 0.0211 0.0962 0.0000
vt 0.0305 0.1578 0.0000
vt 0.0074 0.0962 0.0000
vt 0.0897 0.0305 0.0000
vt 0.0404 0.0461 0.0000
vt 0.2964 0.3454 0.0000
vt 0.7856 0.3496 0.0000
vt 0.1489 0.1578 0.0000
vt 0.0897 0.1770 0.0000
vt 0.7438 0.0234 0.0000
vt 0.7799 0.0234 0.0000
vt 0.2166 0.0113 0.0000
vt 0.2536 0.0113 0.0000
vt 0.2905 0.0113 0.0000
vt 0.3049 0.0113 0.0000
vt 0.2022 0.0113 0.0000
vt 0.7077 0.0234 0.0000
vt 0.6936 0.1815 0.0000
vt 0.6936 0.0234 0.0000
vt 0.7939 0.0234 0.0000
vt 0.0897 0.0154 0.0000
vt 0.0305 0.0346 0.0000
vt 0.6990 0.4337 0.0000
vt 0.6951 0.3964 0.0000
vt 0.7924 0.3964 0.0000
vt 0.7747 0.4403 0.0000
vt 0.3034 0.3933 0.0000
vt 0.2037 0.3933 0.0000
vt 0.6366 0.4814 0.0000
vt 0.6019 0.4683 0.0000
vt 0.4566 0.4558 0.0000
vt 0.3989 0.4669 0.0000
vt 0.5275 0.4574 0.0000
vt 0.5456 0.4574 0.0000
vt 0.5456 0.9484 0.0000
vt 0.5252 0.9406 0.0000
vt 0.8857 0.4683 0.0000
vt 0.9420 0.4574 0.0000
vt 0.9420 0.9484 0.0000
vt 0.8857 0.9435 0.0000
vt 0.8072 0.2946 0.0000
vt 0.9747 0.4476 0.0000
vt 0.6974 0.2939 0.0000
vt 0.1082 0.4669 0.0000
vt 0.0506 0.4558 0.0000
vt 0.8431 0.4938 0.0000
vt 0.5403 0.9642 0.0000
vt 0.6019 0.9606 0.0000
vt 0.6019 0.9774 0.0000
vt 0.5566 0.9801 0.0000
vt 0.6419 0.2335 0.0000
vt 0.6419 0.0645 0.0000
vt 0.6564 0.0831 0.0000
vt 0.6564 0.2149 0.0000
vt 0.8451 0.8910 0.0000
vt 0.1082 0.9536 0.0000
vt 0.0506 0.9586 0.0000
vt 0.6366 0.8917 0.0000
vt 0.6019 0.9435 0.0000
vt 0.4566 0.9586 0.0000
vt 0.3989 0.9536 0.0000
vt 0.9607 0.9334 0.0000
vt 0.3937 0.2335 0.0000
vt 0.3596 0.2335 0.0000
vt 0.3596 0.0645 0.0000
vt 0.3937 0.0645 0.0000
vt 0.6078 0.2335 0.0000
vt 0.6078 0.0645 0.0000
vt 0.8857 0.9606 0.0000
vt 0.9473 0.9642 0.0000
vt 0.9310 0.9801 0.0000
vt 0.8857 0.9774 0.0000
vt 0.9681 0.9660 0.0000
vt 0.9501 0.9800 0.0000
vt 0.8097 0.9719 0.0000
vt 0.8097 0.9560 0.0000
vt 0.0452 0.9748 0.0000
vt 0.1082 0.9711 0.0000
vt 0.1082 0.9883 0.0000
vt 0.0619 0.9910 0.0000
vt 0.5505 0.2335 0.0000
vt 0.5505 0.0645 0.0000
vt 0.3989 0.9711 0.0000
vt 0.4620 0.9748 0.0000
vt 0.4453 0.9910 0.0000
vt 0.3989 0.9883 0.0000
vt 0.3212 0.9827 0.0000
vt 0.3212 0.9664 0.0000
vt 0.8097 0.9402 0.0000
vt 0.8038 0.8982 0.0000
vt 0.1860 0.9502 0.0000
vt 0.1860 0.9664 0.0000
vt 0.6778 0.9402 0.0000
vt 0.6778 0.9560 0.0000
vt 0.4510 0.0645 0.0000
vt 0.4510 0.2335 0.0000
vt 0.6811 0.9028 0.0000
vt 0.3212 0.9502 0.0000
vt 0.6778 0.9719 0.0000
vt 0.0238 0.9766 0.0000
vt 0.0298 0.9626 0.0000
vt 0.5194 0.9660 0.0000
vt 0.5252 0.9524 0.0000
vt 0.1860 0.9827 0.0000
vt 0.3315 0.2397 0.0000
vt 0.3315 0.0582 0.0000
vt 0.3451 0.0831 0.0000
vt 0.3451 0.2149 0.0000
vt 0.6700 0.0582 0.0000
vt 0.6700 0.2397 0.0000
vt 0.9623 0.9524 0.0000
vt 0.4774 0.9626 0.0000
vt 0.4834 0.9766 0.0000
vt 0.0422 0.9909 0.0000
vt 0.5374 0.9800 0.0000
vt 0.4649 0.9909 0.0000
# 165 texture coords

g kolsyl
usemtl 04___Default
s 2
f 4/3/1 3/4/2 1/1/3 2/2/4 
f 6/5/5 5/6/6 3/4/7 4/3/8 
f 8/9/9 7/10/10 5/7/11 6/8/12 
f 10/11/13 9/12/14 7/10/15 8/9/16 
f 11/13/17 12/14/18 2/2/19 1/1/20 
f 12/14/21 11/13/22 9/15/23 10/16/24 
f 42/19/25 53/20/26 34/17/27 17/18/28 
f 38/23/29 46/21/30 25/21/31 13/22/32 
f 39/26/33 52/27/34 33/24/35 14/25/36 
f 35/28/37 28/29/38 19/30/39 
f 46/21/40 41/32/41 16/31/42 25/21/43 
s 1
f 23/34/44 30/35/45 27/33/46 17/18/47 
f 21/37/48 37/38/49 34/36/50 13/22/51 
f 24/41/52 36/42/53 31/39/54 20/40/55 
f 22/43/56 29/44/57 25/21/58 16/31/59 
s 2
f 50/45/60 45/46/61 20/40/62 31/39/63 
f 41/32/64 50/48/65 31/47/66 16/31/67 
f 33/24/68 18/49/69 35/28/70 
s 1
f 30/35/71 24/41/72 20/40/73 27/33/74 
f 29/44/75 21/37/76 13/22/77 25/21/78 
s 2
f 44/51/79 51/52/80 32/50/81 19/30/82 
f 26/53/83 35/28/84 15/54/85 
f 14/25/86 33/24/87 35/28/88 
s 1
f 37/55/89 23/34/90 17/18/91 34/17/92 
f 36/56/93 22/43/94 16/31/95 31/47/96 
s 2
f 43/57/97 49/58/98 28/29/99 18/49/100 
s 4
f 40/60/101 41/32/102 46/21/103 47/59/104 
f 44/61/105 49/62/106 48/33/107 45/46/108 
f 43/63/109 52/64/110 53/20/111 42/19/112 
f 45/46/113 50/45/114 51/65/115 44/61/116 
f 47/59/117 46/21/118 38/23/119 39/66/120 
f 49/62/121 43/63/122 42/19/123 48/33/124 
f 52/68/125 39/66/126 38/23/127 53/67/128 
f 50/48/129 41/32/130 40/60/131 51/69/132 
s 2
f 53/67/133 38/23/134 13/22/135 34/36/136 
f 47/70/137 39/26/138 14/25/139 26/53/140 
f 45/46/141 48/33/142 27/33/143 20/40/144 
f 40/71/145 47/70/146 26/53/147 15/54/148 
f 51/52/149 40/71/150 15/54/151 32/50/152 
f 48/33/153 42/19/154 17/18/155 27/33/156 
f 49/58/157 44/51/158 19/30/159 28/29/160 
f 52/27/161 43/57/162 18/49/163 33/24/164 
f 18/49/165 28/29/166 35/28/167 
f 32/50/168 35/28/169 19/30/170 
f 35/28/171 32/50/172 15/54/173 
f 26/53/174 14/25/175 35/28/176 
s off
f 59/74/177 61/75/178 60/72/179 58/73/180 
f 60/76/181 61/77/182 57/42/183 56/55/184 
f 59/74/185 58/73/186 54/38/187 55/56/188 
f 68/78/189 66/79/190 58/73/191 60/72/192 
f 64/80/193 68/81/194 60/76/195 56/55/196 
f 70/84/197 72/85/198 64/82/199 62/83/200 
f 71/88/201 75/89/202 67/86/203 63/87/204 
f 65/91/205 63/87/206 55/56/207 57/90/208 
f 66/79/209 62/83/210 54/38/211 58/73/212 
f 63/87/213 67/86/214 59/74/215 55/56/216 
f 62/83/217 64/82/218 56/92/219 54/38/220 
f 69/93/221 65/94/222 57/42/223 61/77/224 
f 67/86/225 69/95/226 61/75/227 59/74/228 
s 2
f 82/98/229 78/99/230 97/96/231 96/97/232 
f 112/102/233 110/103/234 78/100/235 80/101/236 
s off
f 75/89/237 77/104/238 69/95/239 67/86/240 
f 77/105/241 73/106/242 65/94/243 69/93/244 
f 76/107/245 74/108/246 66/79/247 68/78/248 
f 72/109/249 76/110/250 68/81/251 64/80/252 
f 73/111/253 71/88/254 63/87/255 65/91/256 
f 74/108/257 70/84/258 62/83/259 66/79/260 
s 2
f 81/114/261 85/115/262 83/112/263 79/113/264 
f 84/117/265 80/101/266 78/100/267 82/116/268 
f 79/120/269 83/121/270 98/118/271 95/119/272 
f 115/122/273 111/123/274 79/120/275 95/119/276 
f 91/124/277 103/125/278 98/118/279 83/121/280 
f 85/128/281 81/129/282 94/126/283 100/127/284 
f 90/130/285 92/131/286 84/117/287 82/116/288 
f 80/134/289 84/135/290 101/132/291 99/133/292 
f 92/136/293 105/137/294 101/132/295 84/135/296 
f 87/138/297 89/139/298 77/104/299 75/89/300 
f 89/140/301 104/141/302 100/127/303 77/105/304 
f 86/142/305 102/143/306 96/97/307 74/108/308 
f 93/144/309 91/145/310 83/112/311 85/115/312 
f 88/146/313 86/142/314 74/108/315 76/107/316 
f 87/138/317 86/142/318 88/146/319 89/139/320 
f 89/140/321 88/147/322 105/137/323 104/141/324 
f 93/144/325 92/131/326 90/130/327 91/145/328 
f 91/124/329 90/148/330 102/143/331 103/125/332 
s off
f 57/90/333 55/56/334 54/38/335 56/92/336 
s 2
f 96/97/337 97/96/338 70/84/339 74/108/340 
f 114/149/341 109/150/342 73/106/343 94/126/344 
f 95/119/345 98/118/346 75/89/347 71/88/348 
f 116/151/349 106/152/350 70/84/351 97/96/352 
f 103/125/353 87/138/354 75/89/355 98/118/356 
f 100/127/357 94/126/358 73/106/359 77/105/360 
f 99/133/361 101/132/362 76/110/363 72/109/364 
f 105/137/365 88/147/366 76/110/367 101/132/368 
f 104/141/369 93/153/370 85/128/371 100/127/372 
f 102/143/373 90/148/374 82/98/375 96/97/376 
f 104/141/377 105/137/378 92/136/379 93/153/380 
f 103/125/381 102/143/382 86/142/383 87/138/384 
f 113/156/385 111/157/386 115/154/387 114/155/388 
f 110/103/389 112/102/390 117/158/391 116/159/392 
f 114/122/393 115/122/394 107/160/395 109/160/396 
f 116/151/397 117/151/398 108/152/399 106/152/400 
f 108/161/401 117/162/402 99/133/403 72/109/404 
f 111/157/405 113/156/406 81/114/407 79/113/408 
f 113/163/409 114/149/410 94/126/411 81/129/412 
f 110/164/413 116/151/414 97/96/415 78/99/416 
f 106/152/417 108/152/418 72/85/419 70/84/420 
f 107/160/421 115/122/422 95/119/423 71/88/424 
f 109/160/425 107/160/426 71/88/427 73/111/428 
f 117/162/429 112/165/430 80/134/431 99/133/432 
# 102 polygons - 8 triangles

